<svg xmlns="http://www.w3.org/2000/svg" width="837.38055pt" height="225pt" viewBox="0 0 837.38057 225"><path fill="#009692" d="M161.974 133.312c-.567-3.448-1.497-6.747-2.846-9.809-4.388-9.412-10.444-17.27-19.515-22.554-14.096-8.256-31.15-8.165-45.12.249-6.305 3.855-11.476 9.332-14.867 15.943-1.11 2.223-2.03 4.582-2.8 6.986-3.663 11.668-3.561 27.396 3.084 38.067 2.177 3.47 5.295 6.463 9.14 7.937 3.832 1.474 8.334 1.316 11.781-.896 4.445-2.903 5.228-8.346 4.4-13.21-1.032-6.248-1.86-12.338.442-18.404.749-1.985 1.747-3.844 3.277-5.273.908-.862 1.985-1.554 3.119-2.132 2.415-1.168 5.137-1.712 7.79-1.281 4.615.782 8.414 4.343 10.455 8.55 2.053 4.195 2.608 8.97 2.824 13.618.986 20.389-3.878 41.492-9.083 61.075-.556 2.019-1.089 4.015-1.656 6.01-.453 1.554-1.224 3.527-.25 5.035.42.658 1.09 1.089 1.815 1.395 3.016 1.202 5.489-.635 7.507-2.688 11.94-12.02 19.617-27.52 24.81-43.442 1.974-5.953 3.675-11.997 4.798-18.2 1.542-8.402 2.404-18.075.895-26.976M247.495 39.166c0-3.062-2.733-5.069-5.624-4.955-2.937.079-5.693 1.621-8.392 2.63C180.932 56.833 121.682 60.61 66.345 52.65c-9.513-1.384-19.073-3.277-28.598-4.774-5.965-.93-11.861-2.268-17.882-2.733-5.103-.397-11.487-.578-15.65 2.982-5.43 4.718-5.08 13.676-1.961 19.572 3.72 7.099 10.228 12.406 16.998 16.431 6.589 3.924 14.424 8.108 22.294 7.61 21.16-1.339 42.262-3.414 63.274-6.124 35.879-4.638 73.48-9.049 107.148-22.951 11.056-4.547 21.908-10.229 31.365-17.577 1.679-1.27 4.162-3.413 4.162-5.919" style="stroke-width:11.3396"/><path fill="#ed2254" d="M96.812 21.182c0 11.408 9.252 20.65 20.638 20.65 11.441 0 20.694-9.242 20.694-20.65 0-1.7-.397-3.413-1.1-4.955-1.78-3.776-3.776-5.59-3.572-10.081C133.722.079 125.954 0 121.758 0c-4.57 0-9.4.612-13.562 2.687-3.254 1.679-6.1 4.207-8.107 7.314-2.041 3.164-3.176 6.918-3.266 10.694-.018.181-.018.329-.018.487" style="stroke-width:11.3396"/><path fill="#2c292a" d="M291.34 70.682v-15.83h23.315v15.83h31.195v15.002h-16.363c3.697 4.457 6.6 9.73 8.765 15.82 2.144 6.122 3.334 12.801 3.402 19.99-.069 7.133-1.122 13.665-3.016 19.675-1.86 5.999-4.525 11.18-7.972 15.512-3.458 4.423-7.495 7.87-12.178 10.32-4.638 2.437-9.798 3.662-15.49 3.662-5.897.114-11.192-1.088-16-3.55-4.774-2.528-8.811-5.941-12.168-10.284-3.436-4.445-6.078-9.661-7.926-15.66-1.803-6.01-2.699-12.542-2.699-19.674 0-7.19 1.066-13.869 3.22-19.992 2.178-6.09 5.058-11.362 8.755-15.819h-15.331V70.682zm11.658 15.32c-4.65 0-8.573 3.254-11.76 9.763-3.152 6.51-4.671 15.07-4.57 25.73-.1 10.341 1.396 18.608 4.514 24.822 3.118 6.214 6.985 9.355 11.657 9.355s8.55-3.107 11.657-9.264c3.096-6.158 4.65-14.424 4.65-24.913 0-11.204-1.52-19.913-4.548-26.16-3.073-6.237-6.928-9.333-11.6-9.333m80.318 29.698v89.968H360.84V54.852h22.475v45.835h21.67V115.7zM441.453 147.342h44.927c2.28 0 4.525-.113 6.736-.352a37.092 37.092 0 0 0 6.588-1.247c2.177-.612 4.457-1.576 6.94-2.903V54.856h22.464v45.835h21.67v15.014h-21.67v89.956h-22.464v-47.853c-4.003 1.815-8.482 2.983-13.426 3.606-4.967.624-9.775.919-14.424.919h-49.815c-5 0-9.14-2.041-12.405-6.078-3.289-4.06-4.922-8.913-4.922-14.583V61.524h22.498v79.65c0 2.018.601 3.537 1.815 4.57 1.235 1.054 3.084 1.598 5.488 1.598M598.407 115.7H559.15v-15.013h44.927a94.57 94.57 0 0 0 1.86-8.993c.465-3.027.68-6.01.68-8.992v-4.49H559.15V63.187h70.793V77.87c0 11.42-1.872 22.226-5.614 32.398-3.72 10.137-8.776 19.163-15.229 27.056-6.418 7.915-14.106 14.39-22.94 19.436-8.765 5.057-18.381 8.176-28.711 9.423v-15.048c9.332-2.755 17.485-7.359 24.402-13.811 6.94-6.418 12.463-13.664 16.556-21.625m76.486 0v89.968H652.44V54.852h22.453v45.835h21.658V115.7zM702.429 168.996H837.38v15.013H702.429zm16.805-105.81H820.87v15.025h-79.128v41.265c0 2.018.602 3.572 1.826 4.615 1.236 1.066 3.119 1.576 5.67 1.576h71.632v15.003h-84.128c-4.99 0-9.14-2.03-12.52-6.056-3.287-4.093-4.988-8.947-4.988-14.605z" style="stroke-width:11.3396"/></svg>