<svg xmlns="http://www.w3.org/2000/svg" width="66" height="18" viewBox="0 0 66 18">
    <path data-name="사각형 16805" style="fill:none" d="M0 0h66v18H0z"/>
    <g data-name="그룹 13480">
        <g data-name="그룹 13479">
            <g data-name="그룹 13478">
                <path data-name="패스 12532" d="M181.959 386.261v-1.243h1.828v1.243h2.443v1.175h-1.28a4.051 4.051 0 0 1 .685 1.238 4.894 4.894 0 0 1 .268 1.567 5.354 5.354 0 0 1-.236 1.541 3.723 3.723 0 0 1-.627 1.214 2.9 2.9 0 0 1-.952.81 2.845 2.845 0 0 1-2.468.008 2.871 2.871 0 0 1-.953-.8 3.765 3.765 0 0 1-.621-1.228 5.28 5.28 0 0 1-.214-1.541 4.7 4.7 0 0 1 .254-1.567 4.038 4.038 0 0 1 .686-1.238h-1.2v-1.175zm.915 1.2c-.366 0-.674.255-.919.764a4.527 4.527 0 0 0-.362 2.017 4.3 4.3 0 0 0 .353 1.945q.365.73.915.731c.366 0 .669-.241.914-.727a4.36 4.36 0 0 0 .365-1.95 4.742 4.742 0 0 0-.359-2.051c-.24-.49-.541-.73-.908-.73zm6.293 2.323v7.052H187.4v-11.818h1.762v3.59h1.7v1.175z" transform="translate(-159.541 -380.596)" style="fill:#231815"/>
                <path data-name="패스 12533" d="M322.619 392.267h3.52c.179 0 .355-.012.528-.027a2.933 2.933 0 0 0 .516-.1 2.571 2.571 0 0 0 .543-.23v-6.894h1.76v3.59h1.7v1.175h-1.7v7.052h-1.76v-3.749a3.708 3.708 0 0 1-1.052.283 8.965 8.965 0 0 1-1.129.071h-3.9a1.193 1.193 0 0 1-.972-.478 1.741 1.741 0 0 1-.385-1.142v-6.28h1.763v6.241a.447.447 0 0 0 .143.36.643.643 0 0 0 .425.128z" transform="translate(-288.439 -380.596)" style="fill:#231815"/>
                <path data-name="패스 12534" d="M459.538 389.784h-3.082v-1.175h3.524a6.476 6.476 0 0 0 .145-.7 4.984 4.984 0 0 0 .052-.7v-.352h-3.721v-1.175h5.549v1.148a7.353 7.353 0 0 1-1.632 4.659 6.4 6.4 0 0 1-1.8 1.524 5.829 5.829 0 0 1-2.252.736v-1.177a4.726 4.726 0 0 0 1.913-1.083 6.125 6.125 0 0 0 1.304-1.705zm5.993 0v7.052h-1.764v-11.818h1.764v3.59h1.7v1.175z" transform="translate(-413.057 -380.596)" style="fill:#231815"/>
                <path data-name="패스 12535" d="M591.586 401.113h10.575v1.173h-10.575zm1.318-8.291h7.965V394h-6.2v3.235a.459.459 0 0 0 .142.362.682.682 0 0 0 .446.122h5.614v1.176h-6.593a1.226 1.226 0 0 1-.98-.476 1.753 1.753 0 0 1-.392-1.144z" transform="translate(-536.958 -387.745)" style="fill:#231815"/>
            </g>
        </g>
    </g>
    <g data-name="그룹 13481">
        <path data-name="패스 12536" d="M388.7 191.2a3.22 3.22 0 0 0-.227-.777 3.848 3.848 0 0 0-1.537-1.78 3.459 3.459 0 0 0-3.563.022 3.127 3.127 0 0 0-1.173 1.257 3.767 3.767 0 0 0-.223.55 3.873 3.873 0 0 0 .243 3.007 1.513 1.513 0 0 0 .721.627 1.044 1.044 0 0 0 .932-.072.99.99 0 0 0 .347-1.042 2.732 2.732 0 0 1 .033-1.455 1.131 1.131 0 0 1 .258-.414.935.935 0 0 1 .247-.169 1.035 1.035 0 0 1 .614-.1 1.177 1.177 0 0 1 .827.675 2.73 2.73 0 0 1 .225 1.077 16.255 16.255 0 0 1-.719 4.818q-.064.239-.132.476c-.034.122-.1.278-.019.4a.309.309 0 0 0 .143.109.54.54 0 0 0 .592-.211 8.6 8.6 0 0 0 1.962-3.43 11.017 11.017 0 0 0 .375-1.435 6.3 6.3 0 0 0 .072-2.131" transform="translate(-375.907 -180.562)" style="fill:#008375"/>
        <path data-name="패스 12537" d="M308.237 112.727a.408.408 0 0 0-.444-.392 2.1 2.1 0 0 0-.662.208 26.807 26.807 0 0 1-13.2 1.247c-.748-.108-1.505-.258-2.258-.376-.47-.074-.935-.181-1.411-.216a1.7 1.7 0 0 0-1.234.236 1.3 1.3 0 0 0-.157 1.544 3.468 3.468 0 0 0 1.344 1.3 3.249 3.249 0 0 0 1.758.6q2.506-.161 5-.484a33.414 33.414 0 0 0 8.46-1.813 10.658 10.658 0 0 0 2.473-1.387c.134-.1.33-.271.33-.467" transform="translate(-288.695 -109.519)" style="fill:#008375"/>
        <path data-name="패스 12538" d="M409.811 71.208a1.631 1.631 0 1 0 3.262 0 .926.926 0 0 0-.088-.392c-.14-.3-.3-.44-.281-.8.021-.479-.594-.485-.925-.485a2.4 2.4 0 0 0-1.07.213 1.629 1.629 0 0 0-.9 1.422v.037" transform="translate(-402.166 -69.421)" style="fill:#d70035"/>
    </g>
</svg>
